<mxfile host="app.diagrams.net" agent="Mozilla/5.0 (Macintosh; Intel Mac OS X 10_15_7) AppleWebKit/537.36 (KHTML, like Gecko) Chrome/133.0.0.0 Safari/537.36 Edg/133.0.0.0" version="26.0.16">
  <diagram name="Page-1" id="RPSJeJO-DITnHIdlgiLI">
    <mxGraphModel dx="3556" dy="2293" grid="1" gridSize="10" guides="1" tooltips="1" connect="1" arrows="1" fold="1" page="1" pageScale="1" pageWidth="850" pageHeight="1100" math="0" shadow="0">
      <root>
        <mxCell id="0" />
        <mxCell id="1" parent="0" />
        <mxCell id="j9Kz_jiVFVZyKjsGRfZk-2" value="room" style="rounded=0;whiteSpace=wrap;html=1;imageWidth=107.5;imageHeight=121;direction=north;" vertex="1" parent="1">
          <mxGeometry x="330" y="130" width="1080" height="1520" as="geometry" />
        </mxCell>
        <mxCell id="j9Kz_jiVFVZyKjsGRfZk-3" value="" style="rounded=0;whiteSpace=wrap;html=1;fillColor=#dae8fc;strokeColor=#6c8ebf;" vertex="1" parent="1">
          <mxGeometry x="1170" y="130" width="240" height="390" as="geometry" />
        </mxCell>
        <mxCell id="j9Kz_jiVFVZyKjsGRfZk-4" value="" style="rounded=0;whiteSpace=wrap;html=1;fillColor=#dae8fc;strokeColor=#6c8ebf;" vertex="1" parent="1">
          <mxGeometry x="1020" y="130" width="390" height="240" as="geometry" />
        </mxCell>
        <mxCell id="j9Kz_jiVFVZyKjsGRfZk-5" value="" style="rounded=0;whiteSpace=wrap;html=1;fillColor=#dae8fc;strokeColor=#6c8ebf;" vertex="1" parent="1">
          <mxGeometry x="1260" y="540" width="150" height="460" as="geometry" />
        </mxCell>
        <mxCell id="j9Kz_jiVFVZyKjsGRfZk-6" value="" style="rounded=0;whiteSpace=wrap;html=1;fillColor=#dae8fc;strokeColor=#6c8ebf;" vertex="1" parent="1">
          <mxGeometry x="1220" y="1020" width="190" height="630" as="geometry" />
        </mxCell>
        <mxCell id="j9Kz_jiVFVZyKjsGRfZk-7" value="" style="rounded=0;whiteSpace=wrap;html=1;fillColor=#dae8fc;strokeColor=#6c8ebf;" vertex="1" parent="1">
          <mxGeometry x="330" y="1040" width="790" height="610" as="geometry" />
        </mxCell>
        <mxCell id="j9Kz_jiVFVZyKjsGRfZk-9" value="" style="rounded=0;whiteSpace=wrap;html=1;fillColor=#dae8fc;strokeColor=#6c8ebf;" vertex="1" parent="1">
          <mxGeometry x="330" y="880" width="150" height="140" as="geometry" />
        </mxCell>
        <mxCell id="j9Kz_jiVFVZyKjsGRfZk-10" value="" style="rounded=0;whiteSpace=wrap;html=1;fillColor=#dae8fc;strokeColor=#6c8ebf;" vertex="1" parent="1">
          <mxGeometry x="330" y="620" width="100" height="240" as="geometry" />
        </mxCell>
        <mxCell id="j9Kz_jiVFVZyKjsGRfZk-13" value="" style="rounded=0;whiteSpace=wrap;html=1;fillColor=#f8cecc;strokeColor=#b85450;" vertex="1" parent="1">
          <mxGeometry x="330" y="130" width="35" height="430" as="geometry" />
        </mxCell>
        <mxCell id="j9Kz_jiVFVZyKjsGRfZk-15" value="" style="rounded=0;whiteSpace=wrap;html=1;fillColor=#f8cecc;strokeColor=#b85450;" vertex="1" parent="1">
          <mxGeometry x="450" y="130" width="360" height="30" as="geometry" />
        </mxCell>
      </root>
    </mxGraphModel>
  </diagram>
</mxfile>
